<svg width="16" height="16" viewBox="0 0 16 16" fill="none" xmlns="http://www.w3.org/2000/svg">
<g clip-path="url(#clip0_0_1)">
<path d="M7.99992 14.6667C6.23181 14.6667 4.53612 13.9643 3.28587 12.714C2.03563 11.4638 1.33325 9.7681 1.33325 7.99999C1.33325 6.23188 2.03563 4.53619 3.28587 3.28595C4.53612 2.03571 6.23181 1.33333 7.99992 1.33333C9.76803 1.33333 11.4637 1.96547 12.714 3.09069C13.9642 4.21591 14.6666 5.74203 14.6666 7.33333C14.6666 8.21738 14.3154 9.06523 13.6903 9.69035C13.0652 10.3155 12.2173 10.6667 11.3333 10.6667H9.83325C9.61659 10.6667 9.4042 10.727 9.2199 10.8409C9.03559 10.9548 8.88665 11.1178 8.78975 11.3116C8.69286 11.5054 8.65184 11.7223 8.6713 11.9381C8.69076 12.1539 8.76992 12.36 8.89992 12.5333L9.09992 12.8C9.22992 12.9733 9.30908 13.1794 9.32854 13.3952C9.34799 13.611 9.30698 13.828 9.21008 14.0217C9.11319 14.2155 8.96424 14.3785 8.77994 14.4924C8.59563 14.6063 8.38325 14.6667 8.16658 14.6667H7.99992Z" stroke="white" stroke-width="1.33333" stroke-linecap="round" stroke-linejoin="round"/>
<path d="M9.00008 4.66667C9.18418 4.66667 9.33341 4.51743 9.33341 4.33333C9.33341 4.14924 9.18418 4 9.00008 4C8.81599 4 8.66675 4.14924 8.66675 4.33333C8.66675 4.51743 8.81599 4.66667 9.00008 4.66667Z" fill="white" stroke="white" stroke-width="1.33333" stroke-linecap="round" stroke-linejoin="round"/>
<path d="M11.6666 7.33334C11.8507 7.33334 11.9999 7.1841 11.9999 7.00001C11.9999 6.81591 11.8507 6.66667 11.6666 6.66667C11.4825 6.66667 11.3333 6.81591 11.3333 7.00001C11.3333 7.1841 11.4825 7.33334 11.6666 7.33334Z" fill="white" stroke="white" stroke-width="1.33333" stroke-linecap="round" stroke-linejoin="round"/>
<path d="M4.33333 8.66667C4.51743 8.66667 4.66667 8.51743 4.66667 8.33333C4.66667 8.14924 4.51743 8 4.33333 8C4.14924 8 4 8.14924 4 8.33333C4 8.51743 4.14924 8.66667 4.33333 8.66667Z" fill="white" stroke="white" stroke-width="1.33333" stroke-linecap="round" stroke-linejoin="round"/>
<path d="M5.66659 5.33334C5.85068 5.33334 5.99992 5.1841 5.99992 5.00001C5.99992 4.81591 5.85068 4.66667 5.66659 4.66667C5.48249 4.66667 5.33325 4.81591 5.33325 5.00001C5.33325 5.1841 5.48249 5.33334 5.66659 5.33334Z" fill="white" stroke="white" stroke-width="1.33333" stroke-linecap="round" stroke-linejoin="round"/>
</g>
<defs>
<clipPath id="clip0_0_1">
<rect width="16" height="16" fill="white"/>
</clipPath>
</defs>
</svg>
